<?xml version="1.0" encoding="UTF-8"?>
<svg id="Layer_1" xmlns="http://www.w3.org/2000/svg" version="1.1" viewBox="0 0 216 216">
  <!-- Generator: Adobe Illustrator 29.4.0, SVG Export Plug-In . SVG Version: 2.1.0 Build 152)  -->
  <defs>
    <style>
      .st0 {
        fill: #231f20;
      }

      .st1 {
        fill: #ed1c24;
      }

      .st2 {
        fill: #fff;
      }
    </style>
  </defs>
  <g id="Layer_2">
    <circle class="st1" cx="108" cy="108.83" r="82.74"/>
    <path class="st0" d="M103.56,107.8s.36-2.32-5.18-8.01c-30.27-22.13-14-53.55,1.74-61.03,10.14-4.56,15.67,0,17.62.65,20.83,12.69,24.09,45.08,0,60.38l-5.37,8.01s.16,41.14.65,45.53c.49,26.53-9.44,32.55-9.6,0,0-3.26.13-45.53.13-45.53h.01Z"/>
    <path class="st2" d="M80.83,151.49v-31.76c-29.42-1.02-37.91-42.45-4.83-51.67-1.76,19.91,10.69,39.67,14.64,39.37,2.63,3.22,6.19,6.14,6.88,9.81v34.25s-16.69,0-16.69,0Z"/>
    <path class="st2" d="M133.17,150.55v-31.76c29.42-1.02,37.91-42.45,4.83-51.67,1.76,19.91-10.69,39.67-14.64,39.37-2.63,3.22-6.19,6.14-6.88,9.81v34.25s16.69,0,16.69,0Z"/>
  </g>
  <g id="Layer_3">
    <path class="st2" d="M125.5,111.24c1.59-.25,2.98-1.26,4.12-2.35.94-.89,1.77-1.9,2.79-2.7l-.51.39c.31-.23.62-.44.96-.62,1.16-.61,1.61-2.32.9-3.42-.76-1.18-2.18-1.55-3.42-.9-2.03,1.08-3.28,3.02-5.05,4.4l.51-.39c-.38.29-.79.55-1.23.74l.6-.25c-.32.13-.65.22-.99.28-.58.09-1.21.66-1.49,1.15-.31.54-.45,1.33-.25,1.93s.57,1.19,1.15,1.49l.6.25c.44.12.89.12,1.33,0h-.02Z"/>
    <path class="st2" d="M127.59,109.37c3.18-2.57,6.26-5.31,8.83-8.51s4.33-6.47,7.38-9.03c1.04-.87.9-2.64,0-3.54-1.03-1.03-2.5-.87-3.54,0-3,2.52-5.05,6.14-7.38,9.03-2.57,3.2-5.65,5.94-8.83,8.51-1.05.85-.88,2.65,0,3.54,1.04,1.04,2.48.85,3.54,0h0Z"/>
    <path class="st2" d="M90.47,107.56c-1.5-.7-2.91-1.56-4.22-2.57l.51.39c-.75-.58-1.47-1.21-2.15-1.88-.93-.92-2.62-1-3.54,0s-.99,2.55,0,3.54c2,1.97,4.34,3.65,6.88,4.84.62.29,1.24.44,1.93.25.58-.16,1.21-.61,1.49-1.15.31-.58.46-1.28.25-1.93-.19-.59-.57-1.22-1.15-1.49h0Z"/>
  </g>
</svg>